<mxfile host="app.diagrams.net" modified="2024-06-02T08:12:10.700Z" agent="Mozilla/5.0 (X11; Ubuntu; Linux x86_64; rv:125.0) Gecko/20100101 Firefox/125.0" etag="yyZCvst7aDuKSoxihfc1" version="24.4.13" type="device">
  <diagram name="Page-1" id="GShBvaMt4-n2fsqKeiEs">
    <mxGraphModel dx="255" dy="143" grid="1" gridSize="10" guides="1" tooltips="1" connect="1" arrows="1" fold="1" page="1" pageScale="1" pageWidth="850" pageHeight="1100" math="0" shadow="0">
      <root>
        <mxCell id="0" />
        <mxCell id="1" parent="0" />
        <mxCell id="QHThUEgulMYCSTynqxfM-2" value="" style="rounded=0;whiteSpace=wrap;html=1;" parent="1" vertex="1">
          <mxGeometry x="198" y="645" width="150" height="240" as="geometry" />
        </mxCell>
        <mxCell id="QHThUEgulMYCSTynqxfM-11" value="" style="endArrow=none;dashed=1;html=1;strokeWidth=1;rounded=0;" parent="1" target="QHThUEgulMYCSTynqxfM-5" edge="1">
          <mxGeometry width="50" height="50" relative="1" as="geometry">
            <mxPoint x="219.75" y="680" as="sourcePoint" />
            <mxPoint x="219.25" y="840" as="targetPoint" />
          </mxGeometry>
        </mxCell>
        <mxCell id="QHThUEgulMYCSTynqxfM-26" value="T&lt;sub&gt;1&lt;/sub&gt;" style="text;html=1;strokeColor=none;fillColor=none;align=center;verticalAlign=middle;whiteSpace=wrap;rounded=0;" parent="1" vertex="1">
          <mxGeometry x="223" y="834" width="20" height="10" as="geometry" />
        </mxCell>
        <mxCell id="QHThUEgulMYCSTynqxfM-27" value="T&lt;span style=&quot;font-size: 10px;&quot;&gt;&lt;sub&gt;2&lt;/sub&gt;&lt;/span&gt;" style="text;html=1;strokeColor=none;fillColor=none;align=center;verticalAlign=middle;whiteSpace=wrap;rounded=0;" parent="1" vertex="1">
          <mxGeometry x="272" y="833" width="20" height="10" as="geometry" />
        </mxCell>
        <mxCell id="QHThUEgulMYCSTynqxfM-28" value="T&lt;span style=&quot;font-size: 10px;&quot;&gt;&lt;sub&gt;3&lt;/sub&gt;&lt;/span&gt;" style="text;html=1;strokeColor=none;fillColor=none;align=center;verticalAlign=middle;whiteSpace=wrap;rounded=0;" parent="1" vertex="1">
          <mxGeometry x="323" y="833" width="20" height="10" as="geometry" />
        </mxCell>
        <mxCell id="QHThUEgulMYCSTynqxfM-29" value="A&lt;span style=&quot;font-size: 10px;&quot;&gt;&lt;sub style=&quot;font-size: 10px;&quot;&gt;1&lt;/sub&gt;&lt;/span&gt;" style="text;html=1;strokeColor=none;fillColor=none;align=center;verticalAlign=middle;whiteSpace=wrap;rounded=0;fontSize=10;" parent="1" vertex="1">
          <mxGeometry x="228" y="866" width="20" height="10" as="geometry" />
        </mxCell>
        <mxCell id="QHThUEgulMYCSTynqxfM-33" value="" style="sketch=0;pointerEvents=1;shadow=0;dashed=0;html=1;strokeColor=none;fillColor=#505050;labelPosition=center;verticalLabelPosition=bottom;verticalAlign=top;outlineConnect=0;align=center;shape=mxgraph.office.devices.modem;fontSize=10;" parent="1" vertex="1">
          <mxGeometry x="210" y="851" width="20" height="14" as="geometry" />
        </mxCell>
        <mxCell id="QHThUEgulMYCSTynqxfM-34" value="A&lt;sub&gt;2&lt;/sub&gt;" style="text;html=1;strokeColor=none;fillColor=none;align=center;verticalAlign=middle;whiteSpace=wrap;rounded=0;fontSize=10;" parent="1" vertex="1">
          <mxGeometry x="328" y="865" width="20" height="10" as="geometry" />
        </mxCell>
        <mxCell id="QHThUEgulMYCSTynqxfM-35" value="" style="sketch=0;pointerEvents=1;shadow=0;dashed=0;html=1;strokeColor=none;fillColor=#505050;labelPosition=center;verticalLabelPosition=bottom;verticalAlign=top;outlineConnect=0;align=center;shape=mxgraph.office.devices.modem;fontSize=10;" parent="1" vertex="1">
          <mxGeometry x="310" y="851" width="20" height="14" as="geometry" />
        </mxCell>
        <mxCell id="QHThUEgulMYCSTynqxfM-43" value="" style="shape=image;html=1;verticalAlign=top;verticalLabelPosition=bottom;labelBackgroundColor=#ffffff;imageAspect=0;aspect=fixed;image=https://cdn1.iconfinder.com/data/icons/ionicons-fill-vol-2/512/wifi-128.png;fontSize=10;" parent="1" vertex="1">
          <mxGeometry x="216" y="846" width="8" height="8" as="geometry" />
        </mxCell>
        <mxCell id="QHThUEgulMYCSTynqxfM-45" value="" style="shape=image;html=1;verticalAlign=top;verticalLabelPosition=bottom;labelBackgroundColor=#ffffff;imageAspect=0;aspect=fixed;image=https://cdn1.iconfinder.com/data/icons/ionicons-fill-vol-2/512/wifi-128.png;fontSize=10;" parent="1" vertex="1">
          <mxGeometry x="316" y="846" width="8" height="8" as="geometry" />
        </mxCell>
        <mxCell id="QHThUEgulMYCSTynqxfM-5" value="" style="shape=umlActor;verticalLabelPosition=bottom;verticalAlign=top;html=1;outlineConnect=0;" parent="1" vertex="1">
          <mxGeometry x="210" y="806" width="19" height="40" as="geometry" />
        </mxCell>
        <mxCell id="QHThUEgulMYCSTynqxfM-67" value="" style="endArrow=none;startArrow=classic;html=1;strokeWidth=1.5;startSize=3;endSize=3;rounded=0;endFill=0;" parent="1" edge="1">
          <mxGeometry width="50" height="50" relative="1" as="geometry">
            <mxPoint x="310" y="769" as="sourcePoint" />
            <mxPoint x="320" y="799" as="targetPoint" />
            <Array as="points">
              <mxPoint x="310" y="782" />
              <mxPoint x="320" y="789" />
            </Array>
          </mxGeometry>
        </mxCell>
        <mxCell id="TeAQlO065X8vaYn2h3sj-1" value="A&lt;sub&gt;4&lt;/sub&gt;" style="text;html=1;strokeColor=none;fillColor=none;align=center;verticalAlign=middle;whiteSpace=wrap;rounded=0;fontSize=10;" parent="1" vertex="1">
          <mxGeometry x="228" y="660" width="20" height="10" as="geometry" />
        </mxCell>
        <mxCell id="TeAQlO065X8vaYn2h3sj-2" value="" style="sketch=0;pointerEvents=1;shadow=0;dashed=0;html=1;strokeColor=none;fillColor=#505050;labelPosition=center;verticalLabelPosition=bottom;verticalAlign=top;outlineConnect=0;align=center;shape=mxgraph.office.devices.modem;fontSize=10;" parent="1" vertex="1">
          <mxGeometry x="210" y="645" width="20" height="14" as="geometry" />
        </mxCell>
        <mxCell id="TeAQlO065X8vaYn2h3sj-3" value="A&lt;sub&gt;3&lt;/sub&gt;" style="text;html=1;strokeColor=none;fillColor=none;align=center;verticalAlign=middle;whiteSpace=wrap;rounded=0;fontSize=10;" parent="1" vertex="1">
          <mxGeometry x="328" y="659" width="20" height="10" as="geometry" />
        </mxCell>
        <mxCell id="TeAQlO065X8vaYn2h3sj-4" value="" style="sketch=0;pointerEvents=1;shadow=0;dashed=0;html=1;strokeColor=none;fillColor=#505050;labelPosition=center;verticalLabelPosition=bottom;verticalAlign=top;outlineConnect=0;align=center;shape=mxgraph.office.devices.modem;fontSize=10;" parent="1" vertex="1">
          <mxGeometry x="310" y="645" width="20" height="14" as="geometry" />
        </mxCell>
        <mxCell id="TeAQlO065X8vaYn2h3sj-6" value="" style="shape=image;html=1;verticalAlign=top;verticalLabelPosition=bottom;labelBackgroundColor=#ffffff;imageAspect=0;aspect=fixed;image=https://cdn1.iconfinder.com/data/icons/ionicons-fill-vol-2/512/wifi-128.png;fontSize=10;rotation=-179;" parent="1" vertex="1">
          <mxGeometry x="216" y="662" width="8" height="8" as="geometry" />
        </mxCell>
        <mxCell id="TeAQlO065X8vaYn2h3sj-8" value="" style="shape=image;html=1;verticalAlign=top;verticalLabelPosition=bottom;labelBackgroundColor=#ffffff;imageAspect=0;aspect=fixed;image=https://cdn1.iconfinder.com/data/icons/ionicons-fill-vol-2/512/wifi-128.png;fontSize=10;rotation=-179;" parent="1" vertex="1">
          <mxGeometry x="316" y="662" width="8" height="8" as="geometry" />
        </mxCell>
        <mxCell id="TeAQlO065X8vaYn2h3sj-9" value="" style="endArrow=none;startArrow=classic;html=1;strokeWidth=1.5;startSize=3;endSize=3;rounded=0;endFill=0;" parent="1" edge="1">
          <mxGeometry width="50" height="50" relative="1" as="geometry">
            <mxPoint x="270" y="769" as="sourcePoint" />
            <mxPoint x="270" y="799" as="targetPoint" />
            <Array as="points" />
          </mxGeometry>
        </mxCell>
        <mxCell id="TeAQlO065X8vaYn2h3sj-12" value="" style="endArrow=none;dashed=1;html=1;strokeWidth=1;rounded=0;dashPattern=1 4;" parent="1" edge="1">
          <mxGeometry width="50" height="50" relative="1" as="geometry">
            <mxPoint x="230" y="680" as="sourcePoint" />
            <mxPoint x="230" y="833" as="targetPoint" />
          </mxGeometry>
        </mxCell>
        <mxCell id="TeAQlO065X8vaYn2h3sj-14" value="" style="endArrow=classic;startArrow=classic;html=1;rounded=0;strokeWidth=0.5;endSize=3;startSize=3;" parent="1" edge="1">
          <mxGeometry width="50" height="50" relative="1" as="geometry">
            <mxPoint x="220" y="690" as="sourcePoint" />
            <mxPoint x="230" y="690" as="targetPoint" />
          </mxGeometry>
        </mxCell>
        <mxCell id="TeAQlO065X8vaYn2h3sj-15" value="" style="endArrow=classic;startArrow=classic;html=1;rounded=0;strokeWidth=0.5;endSize=3;startSize=3;" parent="1" edge="1">
          <mxGeometry width="50" height="50" relative="1" as="geometry">
            <mxPoint x="220" y="710" as="sourcePoint" />
            <mxPoint x="270" y="710" as="targetPoint" />
          </mxGeometry>
        </mxCell>
        <mxCell id="TeAQlO065X8vaYn2h3sj-16" value="" style="endArrow=none;dashed=1;html=1;dashPattern=1 1;strokeWidth=0.5;rounded=0;startSize=3;endSize=3;jumpStyle=none;endFill=0;startArrow=classic;startFill=1;" parent="1" edge="1">
          <mxGeometry width="50" height="50" relative="1" as="geometry">
            <mxPoint x="225" y="687" as="sourcePoint" />
            <mxPoint x="240" y="677" as="targetPoint" />
            <Array as="points">
              <mxPoint x="230" y="677" />
            </Array>
          </mxGeometry>
        </mxCell>
        <mxCell id="TeAQlO065X8vaYn2h3sj-17" value="&lt;font style=&quot;font-size: 8px;&quot;&gt;0.417m&lt;/font&gt;" style="text;html=1;strokeColor=none;fillColor=none;align=center;verticalAlign=middle;whiteSpace=wrap;rounded=0;fontSize=10;" parent="1" vertex="1">
          <mxGeometry x="244" y="670" width="20" height="10" as="geometry" />
        </mxCell>
        <mxCell id="TeAQlO065X8vaYn2h3sj-18" value="&lt;div style=&quot;font-size: 9px;&quot;&gt;&lt;font style=&quot;font-size: 8px;&quot;&gt;1,25m&lt;/font&gt;&lt;/div&gt;" style="text;html=1;strokeColor=none;fillColor=none;align=center;verticalAlign=middle;whiteSpace=wrap;rounded=0;fontSize=10;" parent="1" vertex="1">
          <mxGeometry x="235" y="699" width="20" height="10" as="geometry" />
        </mxCell>
        <mxCell id="TeAQlO065X8vaYn2h3sj-21" value="" style="endArrow=none;startArrow=classic;html=1;strokeWidth=1.5;startSize=3;endSize=3;rounded=0;endFill=0;" parent="1" edge="1">
          <mxGeometry width="50" height="50" relative="1" as="geometry">
            <mxPoint x="230" y="769" as="sourcePoint" />
            <mxPoint x="220" y="799" as="targetPoint" />
            <Array as="points">
              <mxPoint x="230" y="782" />
              <mxPoint x="220" y="789" />
            </Array>
          </mxGeometry>
        </mxCell>
        <mxCell id="TeAQlO065X8vaYn2h3sj-22" value="" style="endArrow=none;startArrow=classic;html=1;strokeWidth=1.5;startSize=3;endSize=3;rounded=0;endFill=0;" parent="1" edge="1">
          <mxGeometry width="50" height="50" relative="1" as="geometry">
            <mxPoint x="260" y="769" as="sourcePoint" />
            <mxPoint x="270" y="799" as="targetPoint" />
            <Array as="points">
              <mxPoint x="260" y="782" />
              <mxPoint x="270" y="789" />
            </Array>
          </mxGeometry>
        </mxCell>
        <mxCell id="TeAQlO065X8vaYn2h3sj-23" value="" style="endArrow=none;startArrow=classic;html=1;strokeWidth=1.5;startSize=3;endSize=3;rounded=0;endFill=0;" parent="1" edge="1">
          <mxGeometry width="50" height="50" relative="1" as="geometry">
            <mxPoint x="280" y="769" as="sourcePoint" />
            <mxPoint x="270" y="799" as="targetPoint" />
            <Array as="points">
              <mxPoint x="280" y="782" />
              <mxPoint x="270" y="789" />
            </Array>
          </mxGeometry>
        </mxCell>
        <mxCell id="TeAQlO065X8vaYn2h3sj-24" value="" style="endArrow=none;startArrow=classic;html=1;strokeWidth=1.5;startSize=3;endSize=3;rounded=0;endFill=0;" parent="1" edge="1">
          <mxGeometry width="50" height="50" relative="1" as="geometry">
            <mxPoint x="220" y="769" as="sourcePoint" />
            <mxPoint x="220" y="799" as="targetPoint" />
            <Array as="points" />
          </mxGeometry>
        </mxCell>
        <mxCell id="TeAQlO065X8vaYn2h3sj-26" value="" style="endArrow=none;dashed=1;html=1;strokeWidth=1;rounded=0;" parent="1" target="_zlzXDLENZHTqgReKsr3-5" edge="1">
          <mxGeometry width="50" height="50" relative="1" as="geometry">
            <mxPoint x="270.12" y="680" as="sourcePoint" />
            <mxPoint x="269.62" y="840" as="targetPoint" />
          </mxGeometry>
        </mxCell>
        <mxCell id="TeAQlO065X8vaYn2h3sj-27" value="" style="endArrow=none;dashed=1;html=1;strokeWidth=1;rounded=0;dashPattern=1 4;entryX=0.379;entryY=0.007;entryDx=0;entryDy=0;entryPerimeter=0;" parent="1" edge="1" target="QHThUEgulMYCSTynqxfM-27">
          <mxGeometry width="50" height="50" relative="1" as="geometry">
            <mxPoint x="280" y="680" as="sourcePoint" />
            <mxPoint x="280" y="833" as="targetPoint" />
          </mxGeometry>
        </mxCell>
        <mxCell id="TeAQlO065X8vaYn2h3sj-28" value="" style="endArrow=none;dashed=1;html=1;strokeWidth=1;rounded=0;" parent="1" target="_zlzXDLENZHTqgReKsr3-6" edge="1">
          <mxGeometry width="50" height="50" relative="1" as="geometry">
            <mxPoint x="320.25" y="680" as="sourcePoint" />
            <mxPoint x="319.75" y="840" as="targetPoint" />
          </mxGeometry>
        </mxCell>
        <mxCell id="TeAQlO065X8vaYn2h3sj-29" value="" style="endArrow=none;dashed=1;html=1;strokeWidth=1;rounded=0;dashPattern=1 4;" parent="1" edge="1">
          <mxGeometry width="50" height="50" relative="1" as="geometry">
            <mxPoint x="260.5" y="680" as="sourcePoint" />
            <mxPoint x="260" y="840" as="targetPoint" />
          </mxGeometry>
        </mxCell>
        <mxCell id="_zlzXDLENZHTqgReKsr3-5" value="" style="shape=umlActor;verticalLabelPosition=bottom;verticalAlign=top;html=1;outlineConnect=0;" parent="1" vertex="1">
          <mxGeometry x="260" y="806" width="20" height="40" as="geometry" />
        </mxCell>
        <mxCell id="_zlzXDLENZHTqgReKsr3-6" value="" style="shape=umlActor;verticalLabelPosition=bottom;verticalAlign=top;html=1;outlineConnect=0;" parent="1" vertex="1">
          <mxGeometry x="310" y="806" width="20" height="40" as="geometry" />
        </mxCell>
        <mxCell id="TeAQlO065X8vaYn2h3sj-25" value="" style="endArrow=none;startArrow=classic;html=1;strokeWidth=1.5;startSize=3;endSize=3;rounded=0;endFill=0;" parent="1" edge="1">
          <mxGeometry width="50" height="50" relative="1" as="geometry">
            <mxPoint x="320" y="769" as="sourcePoint" />
            <mxPoint x="320" y="799" as="targetPoint" />
            <Array as="points" />
          </mxGeometry>
        </mxCell>
        <mxCell id="TeAQlO065X8vaYn2h3sj-37" value="" style="endArrow=none;startArrow=classic;html=1;strokeWidth=0.5;startSize=3;endSize=3;rounded=0;endFill=0;" parent="1" edge="1">
          <mxGeometry width="50" height="50" relative="1" as="geometry">
            <mxPoint x="208" y="811" as="sourcePoint" />
            <mxPoint x="208" y="841" as="targetPoint" />
            <Array as="points" />
          </mxGeometry>
        </mxCell>
        <mxCell id="TeAQlO065X8vaYn2h3sj-38" value="" style="endArrow=none;startArrow=classic;html=1;strokeWidth=0.5;startSize=3;endSize=3;rounded=0;endFill=0;" parent="1" edge="1">
          <mxGeometry width="50" height="50" relative="1" as="geometry">
            <mxPoint x="253.88" y="811" as="sourcePoint" />
            <mxPoint x="253.88" y="841" as="targetPoint" />
            <Array as="points" />
          </mxGeometry>
        </mxCell>
        <mxCell id="TeAQlO065X8vaYn2h3sj-40" value="" style="endArrow=classic;startArrow=none;html=1;strokeWidth=0.5;startSize=3;endSize=3;rounded=0;endFill=1;startFill=0;" parent="1" edge="1">
          <mxGeometry width="50" height="50" relative="1" as="geometry">
            <mxPoint x="204" y="811" as="sourcePoint" />
            <mxPoint x="204" y="841" as="targetPoint" />
            <Array as="points" />
          </mxGeometry>
        </mxCell>
        <mxCell id="TeAQlO065X8vaYn2h3sj-41" value="" style="endArrow=classic;startArrow=none;html=1;strokeWidth=0.5;startSize=3;endSize=3;rounded=0;endFill=1;startFill=0;" parent="1" edge="1">
          <mxGeometry width="50" height="50" relative="1" as="geometry">
            <mxPoint x="250" y="811" as="sourcePoint" />
            <mxPoint x="250" y="841" as="targetPoint" />
            <Array as="points" />
          </mxGeometry>
        </mxCell>
        <mxCell id="TeAQlO065X8vaYn2h3sj-42" value="" style="endArrow=none;startArrow=classic;html=1;strokeWidth=0.5;startSize=3;endSize=3;rounded=0;endFill=0;" parent="1" edge="1">
          <mxGeometry width="50" height="50" relative="1" as="geometry">
            <mxPoint x="306" y="811" as="sourcePoint" />
            <mxPoint x="306" y="841" as="targetPoint" />
            <Array as="points" />
          </mxGeometry>
        </mxCell>
        <mxCell id="TeAQlO065X8vaYn2h3sj-43" value="" style="endArrow=classic;startArrow=none;html=1;strokeWidth=0.5;startSize=3;endSize=3;rounded=0;endFill=1;startFill=0;" parent="1" edge="1">
          <mxGeometry width="50" height="50" relative="1" as="geometry">
            <mxPoint x="302" y="811" as="sourcePoint" />
            <mxPoint x="302" y="841" as="targetPoint" />
            <Array as="points" />
          </mxGeometry>
        </mxCell>
        <mxCell id="-1GQq3EBsvAUjfZBKCaD-1" value="" style="endArrow=none;dashed=1;html=1;strokeWidth=1;rounded=0;dashPattern=1 4;" edge="1" parent="1">
          <mxGeometry width="50" height="50" relative="1" as="geometry">
            <mxPoint x="310" y="680" as="sourcePoint" />
            <mxPoint x="309.5" y="840" as="targetPoint" />
          </mxGeometry>
        </mxCell>
      </root>
    </mxGraphModel>
  </diagram>
</mxfile>
